<svg width="150" height="72" viewBox="0 0 150 72" fill="none" xmlns="http://www.w3.org/2000/svg">
<g clip-path="url(#clip0_207_621)">
<path d="M51.6799 51.2953C51.6018 50.606 51.5625 49.2519 51.5625 47.2323V43.9159C51.5625 42.7643 51.4681 41.8239 51.2799 41.0928C51.0914 40.3621 50.5855 39.7384 49.7626 39.2219C48.9397 38.7058 47.6502 38.4478 45.8937 38.4478C44.0181 38.4478 42.5359 38.8045 41.4412 39.5114L42.9911 41.0511C43.6116 40.6588 44.4549 40.4625 45.5215 40.4625C46.3576 40.4625 47.0246 40.5626 47.5214 40.764C48.0176 40.9645 48.3783 41.2295 48.604 41.5585C48.829 41.8873 48.9648 42.2048 49.0109 42.5111C49.0567 42.8174 49.08 43.3401 49.08 44.0801C48.5189 44.2809 47.8061 44.4503 46.9423 44.5869L44.6247 44.9299C42.5009 45.1858 41.0089 45.7047 40.1489 46.4858C39.2896 47.2668 38.8594 48.2607 38.8594 49.4669C38.8594 50.7275 39.3056 51.7414 40.1972 52.509C41.0891 53.2766 42.3078 53.6599 43.8525 53.6599C45.7833 53.6599 47.5811 52.9471 49.2456 51.5227C49.3463 52.2623 49.5165 52.8609 49.7557 53.3177H52.3625C51.9854 52.6594 51.758 51.986 51.6799 51.2953ZM49.08 46.917C49.08 48.663 48.613 49.8981 47.6801 50.6243C46.7465 51.3509 45.6684 51.7138 44.4455 51.7138C43.4984 51.7138 42.7717 51.4968 42.2661 51.0631C41.7603 50.6291 41.5075 50.0785 41.5075 49.4113C41.5075 48.0869 42.4457 47.2982 44.3216 47.0471C46.1972 46.7962 47.7836 46.4561 49.08 46.0262V46.917Z" fill="#010101"/>
<path d="M126.716 51.2953C126.638 50.606 126.599 49.2519 126.599 47.2323V43.9159C126.599 42.7643 126.504 41.8239 126.316 41.0928C126.127 40.3621 125.622 39.7384 124.799 39.2219C123.976 38.7058 122.686 38.4478 120.93 38.4478C119.054 38.4478 117.572 38.8045 116.477 39.5114L118.028 41.0511C118.648 40.6588 119.491 40.4625 120.558 40.4625C121.394 40.4625 122.061 40.5626 122.558 40.764C123.054 40.9645 123.414 41.2295 123.64 41.5585C123.865 41.8873 124.001 42.2048 124.047 42.5111C124.093 42.8174 124.116 43.3401 124.116 44.0801C123.555 44.2809 122.842 44.4503 121.978 44.5869L119.661 44.9299C117.537 45.1858 116.045 45.7047 115.185 46.4858C114.326 47.2668 113.896 48.2607 113.896 49.4669C113.896 50.7275 114.341 51.7414 115.234 52.509C116.125 53.2766 117.344 53.6599 118.889 53.6599C120.819 53.6599 122.617 52.9471 124.282 51.5227C124.382 52.2623 124.553 52.8609 124.792 53.3177H127.399C127.022 52.6594 126.794 51.986 126.716 51.2953ZM124.116 46.917C124.116 48.663 123.649 49.8981 122.716 50.6243C121.782 51.3509 120.705 51.7138 119.481 51.7138C118.535 51.7138 117.808 51.4968 117.302 51.0631C116.797 50.6291 116.544 50.0785 116.544 49.4113C116.544 48.0869 117.482 47.2982 119.357 47.0471C121.233 46.7962 122.819 46.4561 124.116 46.0262V46.917Z" fill="#010101"/>
<path d="M82.7607 46.5256H71.5679C71.6714 48.1677 72.1429 49.4214 72.9835 50.2888C73.823 51.1561 74.8712 51.5894 76.1291 51.5894C77.0961 51.5894 77.9078 51.3351 78.5651 50.8273C79.2223 50.3198 79.8542 49.4849 80.0713 48.2843H82.6732C82.4725 50.2853 81.4792 51.5853 80.3532 52.4146C79.2269 53.2454 77.8193 53.66 76.1291 53.66C73.8858 53.66 72.1332 52.9766 70.8711 51.6108C69.609 50.2449 68.9778 48.3771 68.9778 46.0081C68.9778 43.668 69.5899 41.7695 70.8148 40.315C72.0398 38.8602 73.7646 38.1326 75.9888 38.1326C77.0773 38.1326 78.1262 38.3706 79.1355 38.8464C80.1445 39.3221 81.0004 40.1307 81.7042 41.2734C82.4079 42.4157 82.7607 44.1665 82.7607 46.5256ZM80.156 44.4549C80.0522 42.9449 79.5803 41.8564 78.7408 41.1892C77.9012 40.523 76.9829 40.1891 75.9889 40.1891C74.7966 40.1891 73.816 40.5851 73.0463 41.3783C72.2762 42.1704 71.8307 43.1967 71.7085 44.4549H80.156Z" fill="#010101"/>
<path d="M104.271 46.5256H93.0785C93.1813 48.1677 93.6535 49.4214 94.4937 50.2888C95.3333 51.1561 96.3821 51.5894 97.6394 51.5894C98.6064 51.5894 99.4181 51.3351 100.075 50.8273C100.733 50.3198 101.365 49.4849 101.582 48.2843H104.184C103.983 50.2853 102.989 51.5853 101.863 52.4146C100.737 53.2454 99.3296 53.66 97.6394 53.66C95.3961 53.66 93.6434 52.9766 92.3814 51.6108C91.1193 50.2449 90.488 48.3771 90.488 46.0081C90.488 43.668 91.1002 41.7695 92.3258 40.315C93.5497 38.8602 95.2749 38.1326 97.4991 38.1326C98.5876 38.1326 99.6365 38.3706 100.646 38.8464C101.655 39.3221 102.511 40.1307 103.215 41.2734C103.918 42.4157 104.271 44.1665 104.271 46.5256ZM101.666 44.4549C101.562 42.9449 101.091 41.8564 100.252 41.1892C99.4115 40.523 98.4932 40.1891 97.4991 40.1891C96.3068 40.1891 95.3263 40.5851 94.5566 41.3783C93.7872 42.1704 93.3407 43.1967 93.2188 44.4549H101.666Z" fill="#010101"/>
<path d="M141.557 53.3177H139.061V44.4779C139.061 42.9886 138.792 41.9653 138.253 41.4078C137.716 40.8506 136.968 40.5719 136.012 40.5719C135.277 40.5719 134.579 40.7502 133.922 41.1063C133.265 41.4627 132.799 41.9653 132.522 42.6139C132.247 43.2625 132.108 44.1809 132.108 45.3687V53.3177H129.626V38.7765H131.861V40.8324H131.916C132.44 40.0375 133.086 39.4413 133.854 39.0436C134.621 38.6465 135.511 38.4478 136.522 38.4478C137.295 38.4478 138.058 38.5847 138.812 38.8586C139.567 39.1329 140.157 39.5442 140.584 40.0924C141.012 40.6402 141.281 41.2253 141.391 41.8467C141.502 42.4677 141.557 43.3084 141.557 44.3682V53.3177Z" fill="#010101"/>
<path d="M112.621 38.4478C111.61 38.4478 110.72 38.6465 109.953 39.0439C109.185 39.4413 108.539 40.0375 108.015 40.8324H107.96V38.7765H105.726V53.3177H108.207V45.3686C108.207 44.1808 108.346 43.2625 108.622 42.6139C108.898 41.9653 109.364 41.4626 110.022 41.1063C110.678 40.7502 111.376 40.5718 112.111 40.5718C112.628 40.5718 113.082 40.656 113.477 40.8192V38.5109C113.193 38.4729 112.908 38.4478 112.621 38.4478Z" fill="#010101"/>
<path d="M148.666 51.2072C148.05 51.2072 147.666 51.0544 147.515 50.7477C147.363 50.4417 147.287 49.9235 147.287 49.1925V40.6815H149.77V38.7765H147.287V33.6647L144.804 35.1585V38.7765H142.997V40.6815H144.804V49.0552C144.804 50.0968 144.859 50.9102 144.97 51.495C145.08 52.0798 145.383 52.5617 145.881 52.9409C146.376 53.3197 147.168 53.5091 148.253 53.5091C148.409 53.5091 148.579 53.4998 148.758 53.486V51.2024C148.727 51.2031 148.696 51.2072 148.666 51.2072Z" fill="#010101"/>
<path d="M68.0376 53.3176H64.9756L61.1688 47.5618L57.3208 53.3176H54.2998L59.6655 45.7385L54.7275 38.7765H57.8034C59.8078 41.7828 60.9019 43.4594 61.0862 43.8062L64.6721 38.7765H67.6376L62.5757 45.6019L68.0376 53.3176Z" fill="#FC4C02"/>
<path d="M85.1809 49.0551C85.1809 50.0969 85.2365 50.9101 85.3465 51.4948C85.4569 52.0799 85.7607 52.5615 86.2572 52.9411C86.7534 53.3195 87.5443 53.5089 88.6293 53.5089C88.7859 53.5089 88.9567 53.4996 89.1345 53.4861V51.2026C89.1047 51.2033 89.0734 51.2071 89.0429 51.2071C88.4273 51.2071 88.0432 51.0543 87.8922 50.7476C87.7395 50.4419 87.6641 49.9238 87.6641 49.1924V33.6646H85.1809V49.0551Z" fill="#010101"/>
<path d="M0 26.9561H8.56011L21.6057 45.7572L8.54377 66.5024H0L12.8845 45.5283L0 26.9561Z" fill="#FC4C02"/>
<path d="M25.9354 51.8977L22.1538 58.8469L30.8941 71.4286H39.4184L25.9354 51.8977Z" fill="#FC4C02"/>
<path d="M18.5149 18.3248C17.24 20.1394 14.621 22.5208 16.5428 25.5033C18.4646 28.4858 19.4138 29.961 20.5541 31.5638C21.6988 33.1727 25.9582 39.339 25.9582 39.339C25.9582 39.339 36.5238 21.7908 37.0112 20.9838C37.4985 20.1767 37.6609 18.5626 35.7116 16.4642C33.7623 14.3658 28.4016 9.362 26.777 6.77938C25.1525 4.19676 25.1525 0 25.1525 0C25.1525 0 23.6178 3.11318 23.528 5.00382C23.4121 7.44458 25.4773 10.4919 26.9394 13.0745C28.4015 15.6571 28.8889 18.0783 28.8889 19.531C28.8889 20.9838 27.5892 22.5979 27.5892 22.5979C27.5892 22.5979 27.4203 19.2812 25.9582 17.8285C24.4962 16.3758 23.3024 15.1757 22.1072 12.3869C21.0665 14.989 21.793 17.5711 22.4429 19.6695C23.0927 21.7679 22.2079 23.6288 21.5787 25.3645C20.8961 24.6735 22.1072 23.2952 20.2606 21.6606C18.8869 20.4942 18.4468 19.3061 18.5149 18.3248Z" fill="#FC4C02"/>
</g>
<defs>
<clipPath id="clip0_207_621">
<rect width="150" height="71.4286" fill="white"/>
</clipPath>
</defs>
</svg>
